<svg height="640pt" viewBox="-94 -20 640 640" width="640pt" xmlns="http://www.w3.org/2000/svg"><path d="m397.65625 397.414062v202.585938h-240.160156v-201.464844l-.539063-.699218 87.75-66.960938 32.875-25.089844zm0 0" fill="#f8ec7d"/><path d="m156.957031 397.835938.539063.699218v201.464844h-83.773438c-8.007812-.003906-14.707031-6.078125-15.488281-14.046875l-7.429687-251.339844-.160157-10.789062c0 15.277343-12.058593 28.238281-27.339843 28.410156h-.296876c-15.273437.015625-27.660156-12.359375-27.660156-27.632813 0 0-.265625-126.453124-.265625-128.214843.007813-28.765625 23.328125-52.074219 52.089844-52.074219h41.511719l30.902344 56.699219 32.523437-56.699219s43.414063.085938 45.148437.261719c28.617188 2.902343 49.460938 28.449219 46.5625 57.0625v128.074219l.886719 1.164062zm0 0" fill="#e48e66"/><path d="m167.960938 50.125v20.050781c0 27.679688-22.441407 50.121094-50.128907 50.121094-27.679687 0-50.121093-22.441406-50.121093-50.121094v-20.050781c0-27.683594 22.441406-50.125 50.121093-50.125 27.6875 0 50.128907 22.441406 50.128907 50.125zm0 0" fill="#e48e66"/><path d="m115.089844 437.285156c-3.21875.003906-6.082032-2.046875-7.109375-5.09375-1.03125-3.046875 0-6.414062 2.550781-8.367187l162.5-124c2.691406-2.050781 6.417969-2.050781 9.101562 0l162.5 124c2.15625 1.621093 3.277344 4.265625 2.941407 6.9375-.335938 2.675781-2.085938 4.960937-4.570313 5.992187-2.492187 1.027344-5.34375.648438-7.472656-1.007812l-157.949219-120.519532-157.949219 120.523438c-1.300781 1-2.898437 1.539062-4.542968 1.535156zm0 0" fill="#6fe3ff"/><path d="m316.226562 484.585938-31.144531 28.976562v-88.5625c0-4.140625-3.359375-7.5-7.5-7.5s-7.5 3.359375-7.5 7.5v88.5625l-31.136719-28.976562c-3.035156-2.824219-7.777343-2.652344-10.601562.378906-2.820312 3.035156-2.648438 7.777344.382812 10.601562l43.75 40.714844c2.875 2.671875 7.339844 2.671875 10.21875 0l43.75-40.714844c3.03125-2.824218 3.203126-7.566406.382813-10.601562-2.824219-3.03125-7.570313-3.203125-10.601563-.378906zm0 0" fill="#e48e66"/></svg>