<svg height="639pt" viewBox="-19 -22 639.99977 639" width="639pt" xmlns="http://www.w3.org/2000/svg"><path d="m600 548.507812v47.199219h-122.421875v-35.671875l.074219.074219 61.359375-59.675781 35.027343 11.863281c15.519532 5.257813 25.964844 19.824219 25.960938 36.210937zm0 0" fill="#cc7350"/><path d="m445.550781 468.457031c-9.503906-4.128906-18.007812-10.269531-24.925781-17.988281-13.074219-14.460938-20.371094-33.238281-20.496094-52.734375v-.113281c-.203125-.039063-.402344-.078125-.59375-.125-8.402344-1.757813-14.421875-9.164063-14.421875-17.75-.003906-1.464844.171875-2.917969.527344-4.339844 1.390625-5.753906 6.324219-9.953125 12.222656-10.410156l-.203125-9.039063 2.46875 2.460938c3.652344 3.648437 9.199219 4.605469 13.859375 2.386719 2.492188-1.171876 4.507813-3.15625 5.714844-5.632813 1.472656-3.0625 4.207031-5.664063 7.363281-5.839844 13.199219-.738281 36.722656-1.933593 59.785156-18.039062 18.207032 19.039062 43.40625 29.8125 69.75 29.816406h.847657l-.011719 3.886719c5.898438.464844 10.828125 4.664062 12.226562 10.410156 1.199219 4.882812.320313 10.042969-2.421874 14.253906-2.75 4.207032-7.117188 7.089844-12.066407 7.960938v.113281c0 30.511719-18.703125 59.289063-45.425781 70.714844-7.9375 3.421875-16.492188 5.1875-25.136719 5.199219h-13.925781c-8.640625-.011719-17.195312-1.773438-25.136719-5.191407zm0 0" fill="#f7caa5"/><path d="m565.847656 432.894531c2.988282 14.488281-.617187 29.558594-9.851562 41.121094-9.234375 11.554687-23.128906 18.410156-37.921875 18.703125l-.183594.554688-8.140625-2.765626v-22.058593c26.722656-11.425781 45.425781-40.203125 45.425781-70.714844v-.113281c1.09375-.195313 2.171875-.488282 3.210938-.878906zm0 0" fill="#4b5d63"/><path d="m486.851562 331.292969c-23.0625 16.105469-46.585937 17.300781-59.785156 18.039062-3.15625.175781-5.890625 2.777344-7.363281 5.839844-1.207031 2.476563-3.222656 4.460937-5.714844 5.632813-4.660156 2.21875-10.207031 1.261718-13.859375-2.386719l-2.46875-2.460938-.082031-27.410156c-.257813-28.808594 14.996094-55.539063 39.933594-69.96875 24.933593-14.425781 55.707031-14.328125 80.554687.253906 24.847656 14.585938 39.9375 41.402344 39.496094 70.210938l-.113281 32.066406h-.847657c-26.34375-.003906-51.542968-10.777344-69.75-29.816406zm0 0" fill="#4b5d63"/><path d="m522.988281 494.996094 16.023438 5.4375-61.359375 59.675781-.074219-.074219v-37.589844l.074219.074219 32.097656-32.011719 8.140625 2.765626zm0 0" fill="#e2d574"/><path d="m477.578125 522.445312-32.027344-31.9375v-22.050781c7.941407 3.417969 16.496094 5.179688 25.136719 5.191407h13.925781c8.644531-.011719 17.199219-1.777344 25.136719-5.199219v22.058593l-32.097656 32.011719zm0 0" fill="#edb288"/><path d="m477.578125 560.035156v35.671875h-122.273437v-47.199219c-.007813-16.386718 10.4375-30.953124 25.960937-36.210937l35.007813-11.863281zm0 0" fill="#e48e66"/><path d="m434.238281 494.347656 11.3125-3.839844 32.027344 31.9375v37.589844l-61.304687-59.601562zm0 0" fill="#f8ec7d"/><path d="m445.550781 468.457031v22.050781l-11.3125 3.839844c-.066406-.015625-.140625-.027344-.210937-.027344-14.628906-1.300781-27.929688-8.996093-36.347656-21.023437-8.417969-12.03125-11.09375-27.164063-7.304688-41.351563l9.160156-34.449218c.191406.046875.390625.085937.59375.125v.113281c.125 19.496094 7.421875 38.273437 20.496094 52.734375 6.917969 7.71875 15.421875 13.859375 24.925781 17.988281zm0 0" fill="#4b5d63"/><path d="m397.226562 78.609375v163.308594h-194.449218v-162.394531l-.4375-.589844 97.660156-71.101563 94.476562 68.777344zm0 0" fill="#f8ec7d"/><path d="m244.703125 555.917969v39.789062h-244.703125v-39.789062c-.0195312-2.988281.296875-5.964844.953125-8.886719.121094-.523438.25-1.050781.398437-1.5625 3.820313-13.394531 14.113282-23.972656 27.398438-28.160156l58.285156-18.898438c22.039063 11.921875 48.605469 11.921875 70.640625 0l58.277344 18.898438c13.285156 4.1875 23.582031 14.765625 27.410156 28.160156.136719.511719.273438 1.039062.386719 1.5625.660156 2.914062.980469 5.898438.953125 8.886719zm0 0" fill="#e48e66"/><path d="m87.101562 466.445312c-19.511718-10.609374-33.21875-29.433593-37.324218-51.265624l-4.101563-14.109376v-.113281c-5.421875-.964843-10.207031-4.136719-13.214843-8.75-3.011719-4.613281-3.984376-10.269531-2.683594-15.625 1.523437-6.285156 6.902344-10.886719 13.347656-11.410156v.464844c1.625.96875 3.480469 1.484375 5.375 1.484375 5.683594 0 10.367188-4.46875 10.625-10.152344l1.316406-28.773438c9.347656.3125 18.710938.070313 28.035156-.714843 45.425782 40.480469 113.136719 37.867187 113.136719 37.867187v-.175781c6.433594.535156 11.800781 5.136719 13.3125 11.410156 1.316407 5.355469.351563 11.015625-2.65625 15.636719-3.011719 4.617188-7.800781 7.78125-13.230469 8.738281v.113281l-4.113281 14.109376c-4.359375 23.203124-19.550781 42.925781-40.871093 53.0625-21.324219 10.136718-46.207032 9.46875-66.953126-1.796876zm0 0" fill="#f7caa5"/><path d="m201.613281 365.171875v.175781s-67.710937 2.613282-113.136719-37.867187c14.375-1.058594 28.625-3.445313 42.5625-7.132813 0 0 22.351563 28.75 70.574219 31.859375zm0 0" fill="#3f4d51"/><path d="m131.039062 320.347656c-13.9375 3.6875-28.1875 6.074219-42.5625 7.132813-9.324218.785156-18.6875 1.027343-28.035156.714843l-1.316406 28.773438c-.257812 5.683594-4.941406 10.152344-10.625 10.152344-1.894531 0-3.75-.515625-5.375-1.484375v-40.769531c-.355469-28.542969 14.667969-55.082032 39.332031-69.457032 24.667969-14.378906 55.160157-14.378906 79.824219 0 24.667969 14.375 39.691406 40.914063 39.332031 69.457032v27.339843c-48.222656-3.109375-70.574219-31.859375-70.574219-31.859375zm0 0" fill="#4b5d63"/><path d="m157.601562 498.382812.074219.027344c-22.035156 11.921875-48.601562 11.921875-70.640625 0l.066406-.027344v-31.9375c21.984376 11.933594 48.515626 11.933594 70.5 0zm0 0" fill="#edb288"/><path d="m502.738281 577.648438h-7.636719c-4.144531 0-7.5-3.359376-7.5-7.5 0-4.148438 3.355469-7.5 7.5-7.5h7.636719c4.140625 0 7.5 3.351562 7.5 7.5 0 4.140624-3.359375 7.5-7.5 7.5zm0 0" fill="#f8ec7d"/><path d="m162.503906 115.433594c-3.246094 0-6.125-2.089844-7.132812-5.179688-1.003906-3.085937.089844-6.472656 2.714844-8.382812l137.5-100.101563c2.632812-1.914062 6.195312-1.914062 8.828124 0l137.5 100.101563c2.191407 1.566406 3.375 4.1875 3.097657 6.871094-.28125 2.679687-1.96875 5.003906-4.433594 6.085937-2.46875 1.089844-5.328125.769531-7.492187-.832031l-133.085938-96.886719-133.085938 96.886719c-1.277343.9375-2.820312 1.4375-4.410156 1.4375zm0 0" fill="#e2d574"/><path d="m300 140.171875c-8.738281 0-15.824219-7.085937-15.824219-15.824219 0-8.742187 7.085938-15.828125 15.824219-15.828125 8.742188 0 15.824219 7.085938 15.824219 15.828125 0 4.140625 3.359375 7.5 7.5 7.5s7.5-3.359375 7.5-7.5c-.019531-14.132812-9.621094-26.445312-23.324219-29.898437v-6.238281c0-4.140626-3.355469-7.5-7.5-7.5-4.140625 0-7.5 3.359374-7.5 7.5v6.238281c-15.097656 3.785156-25.003906 18.226562-23.09375 33.675781 1.90625 15.449219 15.03125 27.046875 30.59375 27.046875 8.683594.054687 15.699219 7.097656 15.71875 15.78125.019531 8.679687-6.964844 15.757813-15.644531 15.847656-.023438 0-.050781 0-.074219 0s-.046875 0-.074219 0c-8.699219-.042969-15.730469-7.101562-15.746093-15.804687 0-4.144532-3.359376-7.5-7.5-7.5-4.144532 0-7.5 3.355468-7.5 7.5.019531 14.125 9.625 26.429687 23.320312 29.882812v7.316406c0 4.144532 3.359375 7.5 7.5 7.5 4.144531 0 7.5-3.355468 7.5-7.5v-7.316406c15.097656-3.777344 25.003906-18.222656 23.097656-33.671875-1.90625-15.445312-15.03125-27.039062-30.597656-27.035156zm0 0" fill="#e48e66"/></svg>